<?xml version="1.0" standalone="no"?>
<!DOCTYPE svg PUBLIC "-//W3C//DTD SVG 20010904//EN"
 "http://www.w3.org/TR/2001/REC-SVG-20010904/DTD/svg10.dtd">
<svg version="1.0" xmlns="http://www.w3.org/2000/svg"
 width="2000.000000pt" height="2000.000000pt" viewBox="0 0 2000.000000 2000.000000"
 preserveAspectRatio="xMidYMid meet">
<metadata>
Created by potrace 1.14, written by Peter Selinger 2001-2017
</metadata>
<g transform="translate(0.000000,2000.000000) scale(0.100000,-0.100000)"
fill="#000000" stroke="none">
<path d="M0 10000 l0 -10000 10000 0 10000 0 0 10000 0 10000 -10000 0 -10000
0 0 -10000z m10235 5110 c591 -50 1236 -222 1742 -465 616 -296 1144 -794
1463 -1380 61 -112 222 -535 259 -681 42 -167 82 -479 116 -914 8 -107 17
-224 20 -259 12 -143 6 -646 -10 -776 -50 -425 -165 -817 -378 -1292 -225
-501 -656 -1062 -1172 -1527 -124 -112 -315 -261 -372 -290 -32 -16 -33 -19
-33 -76 l0 -60 -880 0 -880 0 0 310 0 311 -122 -125 c-136 -137 -204 -194
-324 -272 -213 -137 -445 -222 -739 -271 -152 -25 -503 -25 -664 0 -411 64
-683 189 -910 416 -281 281 -452 692 -523 1251 -20 159 -17 688 5 855 44 334
111 596 219 865 98 241 198 423 376 685 148 219 214 298 386 470 438 436 791
620 1304 680 418 49 813 -20 1067 -187 128 -84 298 -258 429 -442 l56 -78 1
43 c0 24 2 51 3 59 2 8 6 152 10 320 3 168 11 500 17 738 11 400 10 434 -5
445 -14 10 -16 31 -14 147 l3 135 65 5 65 5 3 58 3 57 324 0 324 0 7 -60 7
-60 68 0 69 0 0 -139 c0 -84 -4 -142 -10 -146 -6 -4 -8 -29 -5 -63 5 -48 56
-981 95 -1707 26 -498 32 -598 45 -845 8 -146 22 -382 30 -525 8 -143 19 -348
25 -455 5 -107 14 -276 19 -375 6 -99 13 -229 16 -290 3 -60 10 -182 15 -270
17 -291 25 -508 24 -627 -1 -65 0 -118 2 -118 3 0 30 13 62 29 150 77 333 240
431 384 78 116 262 443 370 657 244 483 347 817 410 1328 48 388 52 807 11
1087 -39 264 -173 775 -263 1005 -306 784 -938 1365 -1802 1655 -282 96 -553
153 -895 192 -217 24 -771 24 -988 0 -626 -71 -1139 -256 -1671 -604 -279
-182 -470 -341 -757 -627 -437 -437 -699 -757 -922 -1130 -347 -577 -550
-1180 -648 -1921 -24 -184 -30 -621 -10 -825 111 -1164 668 -2131 1646 -2857
357 -265 680 -449 1035 -591 951 -379 1970 -531 2845 -427 697 84 1477 353
2110 728 668 396 1223 980 1470 1547 l50 115 317 0 c386 0 1124 -13 1131 -20
11 -11 -101 -219 -186 -345 -168 -249 -316 -424 -592 -701 -246 -247 -425
-401 -723 -626 -477 -359 -998 -655 -1522 -868 -1018 -412 -2206 -570 -3330
-444 -594 67 -1161 211 -1735 441 -873 351 -1569 879 -2125 1613 -748 986
-1049 2130 -894 3387 150 1217 697 2268 1704 3273 676 676 1427 1097 2370
1329 252 62 563 116 785 135 138 12 536 12 675 1z m5822 -2587 c110 -114 186
-303 239 -598 22 -125 26 -429 6 -520 -52 -236 -114 -339 -472 -790 -429 -539
-512 -653 -603 -833 -65 -126 -109 -248 -144 -392 -21 -87 -26 -138 -30 -300
-8 -314 25 -469 204 -942 36 -96 -21 -72 -114 48 -38 48 -101 126 -141 173
-74 87 -263 363 -342 501 -125 216 -223 484 -270 735 -33 184 -31 505 5 680
43 210 147 455 275 650 111 168 185 258 331 400 168 164 282 259 528 443 393
294 494 440 476 690 -8 106 -3 111 52 55z"/>
<path d="M11210 13462 c-33 -3 -41 -12 -147 -171 -62 -92 -113 -172 -113 -178
0 -6 66 -71 148 -144 81 -74 149 -136 152 -139 14 -15 147 -130 151 -130 4 0
-31 753 -35 756 -4 4 -126 9 -156 6z"/>
<path d="M10956 13334 c-4 -69 -5 -128 -3 -131 5 -4 177 241 177 251 0 3 -38
6 -84 6 l-83 0 -7 -126z"/>
<path d="M10955 13028 c-2 -7 -9 -222 -15 -478 -6 -256 -12 -489 -14 -517 -2
-29 0 -53 4 -53 4 0 117 107 250 238 l243 238 -8 96 -7 96 -131 115 c-73 63
-171 151 -219 196 -49 44 -90 81 -93 81 -3 0 -7 -6 -10 -12z"/>
<path d="M11168 12165 l-247 -243 -2 -97 -1 -97 283 -284 c156 -156 284 -282
285 -281 1 1 -7 157 -16 347 -10 190 -24 440 -30 555 -13 255 -18 337 -22 340
-2 2 -114 -106 -250 -240z"/>
<path d="M9090 12075 c-326 -42 -567 -140 -818 -330 -442 -335 -745 -887 -851
-1555 -34 -210 -43 -335 -43 -580 1 -855 255 -1432 737 -1670 69 -34 163 -71
220 -87 91 -24 116 -27 280 -27 162 0 190 2 286 26 396 100 738 349 989 720
71 105 174 298 224 418 44 107 55 140 48 140 -4 0 -2 4 4 8 19 13 118 330 193
622 92 357 126 637 117 975 -9 383 -48 593 -143 785 -49 98 -69 127 -138 195
-269 270 -707 413 -1105 360z"/>
<path d="M10908 11613 c-3 -32 -6 -154 -7 -270 l-2 -213 283 0 282 0 -39 41
c-22 23 -128 127 -235 233 -107 105 -211 208 -231 229 -20 20 -38 37 -42 37
-3 0 -7 -26 -9 -57z"/>
<path d="M10938 10753 c-47 -4 -47 -4 -53 -46 -3 -23 -5 -107 -3 -185 l3 -144
76 64 c117 97 348 302 345 306 -6 5 -319 10 -368 5z"/>
<path d="M11195 10609 c-345 -309 -318 -280 -322 -341 l-4 -53 303 -300 c167
-165 325 -320 351 -345 l49 -45 -7 90 c-3 50 -10 180 -15 290 -21 440 -42 840
-46 844 -2 2 -34 6 -71 8 l-68 4 -170 -152z"/>
<path d="M10877 10143 c-3 -5 -8 -109 -11 -233 -4 -124 -9 -247 -11 -275 -2
-27 -7 -178 -10 -335 -3 -157 -8 -352 -11 -434 -6 -130 -5 -147 9 -140 8 5
177 164 376 352 237 226 361 351 361 364 0 12 -124 144 -342 364 -189 189
-346 344 -350 344 -4 0 -9 -3 -11 -7z"/>
<path d="M11425 9233 c-143 -130 -415 -385 -537 -503 -31 -30 -60 -68 -64 -84
l-7 -29 319 6 c175 4 357 6 402 7 l84 0 -6 118 c-4 64 -9 155 -11 202 -9 159
-26 415 -29 417 -1 1 -69 -59 -151 -134z"/>
<path d="M15345 11078 c-514 -414 -685 -721 -685 -1231 0 -330 66 -606 245
-1020 21 -48 39 -86 41 -85 1 2 -8 77 -22 168 -31 212 -32 441 -4 701 24 223
39 307 92 514 69 276 110 371 302 700 136 232 189 336 184 358 -2 11 -47 -19
-153 -105z"/>
</g>
</svg>
